<svg width="23" height="25" viewBox="0 0 23 25" fill="none" xmlns="http://www.w3.org/2000/svg">
<path d="M10.5272 0.888106C11.0732 0.370632 11.9268 0.370631 12.4728 0.888106L21.7562 9.68647L22.1001 9.32356L21.7562 9.68648C22.2308 10.1363 22.5 10.7624 22.5 11.4177V22.118C22.5 23.4346 21.4355 24.5 20.125 24.5H17.25C15.9395 24.5 14.875 23.4346 14.875 22.118V17.3147C14.875 16.5092 14.2232 15.8541 13.4167 15.8541H9.58333C8.7768 15.8541 8.125 16.5092 8.125 17.3147V22.118C8.125 23.4347 7.06053 24.5 5.75 24.5H2.875C1.56447 24.5 0.5 23.4347 0.5 22.118V11.4177C0.5 10.7624 0.769166 10.1363 1.24378 9.68647L10.5272 0.888106Z" fill="#0075FF" stroke="white"/>
</svg>
