<svg width="31" height="22" viewBox="0 0 31 22" fill="none" xmlns="http://www.w3.org/2000/svg">
<path d="M23.5687 14.7164C23.2607 14.5373 23.0713 14.208 23.0713 13.8519V6.94617C23.0713 6.58998 23.2607 6.26068 23.5687 6.08166L28.4971 3.21627C29.1638 2.82867 29.9998 3.30963 29.9998 4.08077V16.7173C29.9998 17.4884 29.1638 17.9694 28.4971 17.5818L23.5687 14.7164Z" stroke="#CCCCCC" stroke-width="2" stroke-miterlimit="10"/>
<path d="M1 3.0002C1 1.89563 1.89543 1 3 1H20.4937C21.5982 1 22.4937 1.89543 22.4937 3V18.0971C22.4937 19.2017 21.5982 20.0971 20.4937 20.0971H3C1.89543 20.0971 1 19.2015 1 18.0969C1 12.4755 1 8.62169 1 3.0002Z" stroke="#CCCCCC" stroke-width="2" stroke-miterlimit="10"/>
</svg>
