<svg width="31" height="23" viewBox="0 0 31 23" fill="none" xmlns="http://www.w3.org/2000/svg">
<path d="M1 2.91311C1 1.14743 2.12106 0.916216 2.68159 1.02132L20.6185 1.02132C21.2912 1.02132 21.6462 1.86212 21.7396 2.28252V14.8945C21.7396 15.9034 20.9922 16.1556 20.6185 16.1556H9.40795C8.75399 17.1015 7.27793 19.2456 6.6053 20.2545C5.93266 21.2635 5.7645 20.4647 5.7645 19.9392L6.15074 16.1556H2.40132C1.28026 16.1556 1 15.3148 1 14.8945V2.91311Z" stroke="#CCCCCC" stroke-width="2"/>
<path d="M28.4659 7.64258H21.7395V14.8944C21.7395 15.9034 20.9922 16.1556 20.6185 16.1556H14.4526V17.7321C14.4526 18.4888 15.2 18.678 15.5737 18.678H22.8606C23.2343 19.2035 24.2059 20.5068 25.1027 21.5157C25.9996 22.5247 26.2238 21.7259 26.2238 21.2004L25.9435 18.678H28.1856C29.5309 18.678 29.8672 18.0474 29.8672 17.7321V9.21907C29.8672 7.95788 28.933 7.64258 28.4659 7.64258Z" stroke="#CCCCCC" stroke-width="2"/>
<path d="M4.92383 5.43555H15.2936" stroke="#CCCCCC" stroke-linecap="round"/>
<path d="M4.92383 9.84973H8.28701" stroke="#CCCCCC" stroke-linecap="round"/>
<path d="M9.68799 9.84973H18.3762" stroke="#CCCCCC" stroke-linecap="round"/>
</svg>
