<svg width="15" height="18" viewBox="0 0 15 18" fill="none" xmlns="http://www.w3.org/2000/svg">
<path d="M7.61183 8.18182C7.59152 8.18182 7.56107 8.18182 7.54077 8.18182C7.51032 8.18182 7.46971 8.18182 7.43926 8.18182C5.13493 8.11067 3.40924 6.31169 3.40924 4.09598C3.40924 1.83963 5.24659 0 7.50016 0C9.75371 0 11.5911 1.83963 11.5911 4.09598C11.5809 6.32186 9.84507 8.11067 7.64228 8.18182C7.62198 8.18182 7.62198 8.18182 7.61183 8.18182Z" fill="#0075FF"/>
<path d="M7.49865 17.7272C4.80663 17.7272 2.23469 16.7115 0.243184 14.8628C0.0630478 14.7003 -0.0170128 14.4565 0.00300226 14.2229C0.1331 13.0142 0.873659 11.8867 2.10459 11.0538C5.08684 9.04262 9.92048 9.04262 12.8927 11.0538C14.1237 11.8969 14.8642 13.0142 14.9943 14.2229C15.0243 14.4667 14.9343 14.7003 14.7541 14.8628C12.7626 16.7115 10.1907 17.7272 7.49865 17.7272Z" fill="#0075FF"/>
</svg>
