<svg width="196" height="196" viewBox="0 0 196 196" fill="none" xmlns="http://www.w3.org/2000/svg">
<g filter="url(#filter0_d_954_14)">
<circle cx="98" cy="98" r="92" fill="white"/>
<circle cx="98" cy="98" r="87" stroke="url(#paint0_linear_954_14)" stroke-width="10"/>
</g>
<path d="M60.63 94.7C60.63 93.464 60.906 92.36 61.458 91.388C62.022 90.404 62.784 89.642 63.744 89.102C64.716 88.55 65.802 88.274 67.002 88.274C68.406 88.274 69.636 88.634 70.692 89.354C71.748 90.074 72.486 91.07 72.906 92.342H70.008C69.72 91.742 69.312 91.292 68.784 90.992C68.268 90.692 67.668 90.542 66.984 90.542C66.252 90.542 65.598 90.716 65.022 91.064C64.458 91.4 64.014 91.88 63.69 92.504C63.378 93.128 63.222 93.86 63.222 94.7C63.222 95.528 63.378 96.26 63.69 96.896C64.014 97.52 64.458 98.006 65.022 98.354C65.598 98.69 66.252 98.858 66.984 98.858C67.668 98.858 68.268 98.708 68.784 98.408C69.312 98.096 69.72 97.64 70.008 97.04H72.906C72.486 98.324 71.748 99.326 70.692 100.046C69.648 100.754 68.418 101.108 67.002 101.108C65.802 101.108 64.716 100.838 63.744 100.298C62.784 99.746 62.022 98.984 61.458 98.012C60.906 97.04 60.63 95.936 60.63 94.7ZM80.6744 90.884C81.4304 90.884 82.1024 91.052 82.6904 91.388C83.2784 91.712 83.7344 92.198 84.0584 92.846C84.3944 93.482 84.5624 94.25 84.5624 95.15V101H82.0424V95.492C82.0424 94.7 81.8444 94.094 81.4484 93.674C81.0524 93.242 80.5124 93.026 79.8284 93.026C79.1324 93.026 78.5804 93.242 78.1724 93.674C77.7764 94.094 77.5784 94.7 77.5784 95.492V101H75.0584V87.68H77.5784V92.27C77.9024 91.838 78.3344 91.502 78.8744 91.262C79.4144 91.01 80.0144 90.884 80.6744 90.884ZM96.2288 95.798C96.2288 96.158 96.2048 96.482 96.1568 96.77H88.8668C88.9268 97.49 89.1788 98.054 89.6228 98.462C90.0668 98.87 90.6128 99.074 91.2608 99.074C92.1968 99.074 92.8628 98.672 93.2588 97.868H95.9768C95.6888 98.828 95.1368 99.62 94.3208 100.244C93.5048 100.856 92.5028 101.162 91.3148 101.162C90.3548 101.162 89.4908 100.952 88.7228 100.532C87.9668 100.1 87.3728 99.494 86.9408 98.714C86.5208 97.934 86.3108 97.034 86.3108 96.014C86.3108 94.982 86.5208 94.076 86.9408 93.296C87.3608 92.516 87.9488 91.916 88.7048 91.496C89.4608 91.076 90.3308 90.866 91.3148 90.866C92.2628 90.866 93.1088 91.07 93.8528 91.478C94.6088 91.886 95.1908 92.468 95.5988 93.224C96.0188 93.968 96.2288 94.826 96.2288 95.798ZM93.6188 95.078C93.6068 94.43 93.3728 93.914 92.9168 93.53C92.4608 93.134 91.9028 92.936 91.2428 92.936C90.6188 92.936 90.0908 93.128 89.6588 93.512C89.2388 93.884 88.9808 94.406 88.8848 95.078H93.6188ZM97.4202 96.014C97.4202 94.982 97.6302 94.082 98.0502 93.314C98.4702 92.534 99.0522 91.934 99.7962 91.514C100.54 91.082 101.392 90.866 102.352 90.866C103.588 90.866 104.608 91.178 105.412 91.802C106.228 92.414 106.774 93.278 107.05 94.394H104.332C104.188 93.962 103.942 93.626 103.594 93.386C103.258 93.134 102.838 93.008 102.334 93.008C101.614 93.008 101.044 93.272 100.624 93.8C100.204 94.316 99.9942 95.054 99.9942 96.014C99.9942 96.962 100.204 97.7 100.624 98.228C101.044 98.744 101.614 99.002 102.334 99.002C103.354 99.002 104.02 98.546 104.332 97.634H107.05C106.774 98.714 106.228 99.572 105.412 100.208C104.596 100.844 103.576 101.162 102.352 101.162C101.392 101.162 100.54 100.952 99.7962 100.532C99.0522 100.1 98.4702 99.5 98.0502 98.732C97.6302 97.952 97.4202 97.046 97.4202 96.014ZM114.8 101L111.416 96.752V101H108.896V87.68H111.416V95.258L114.764 91.028H118.04L113.648 96.032L118.076 101H114.8ZM124.975 89.84C124.531 89.84 124.159 89.702 123.859 89.426C123.571 89.138 123.427 88.784 123.427 88.364C123.427 87.944 123.571 87.596 123.859 87.32C124.159 87.032 124.531 86.888 124.975 86.888C125.419 86.888 125.785 87.032 126.073 87.32C126.373 87.596 126.523 87.944 126.523 88.364C126.523 88.784 126.373 89.138 126.073 89.426C125.785 89.702 125.419 89.84 124.975 89.84ZM126.217 91.028V101H123.697V91.028H126.217ZM134.233 90.884C135.421 90.884 136.381 91.262 137.113 92.018C137.845 92.762 138.211 93.806 138.211 95.15V101H135.691V95.492C135.691 94.7 135.493 94.094 135.097 93.674C134.701 93.242 134.161 93.026 133.477 93.026C132.781 93.026 132.229 93.242 131.821 93.674C131.425 94.094 131.227 94.7 131.227 95.492V101H128.707V91.028H131.227V92.27C131.563 91.838 131.989 91.502 132.505 91.262C133.033 91.01 133.609 90.884 134.233 90.884Z" fill="#0075FF"/>
<defs>
<filter id="filter0_d_954_14" x="0" y="0" width="196" height="196" filterUnits="userSpaceOnUse" color-interpolation-filters="sRGB">
<feFlood flood-opacity="0" result="BackgroundImageFix"/>
<feColorMatrix in="SourceAlpha" type="matrix" values="0 0 0 0 0 0 0 0 0 0 0 0 0 0 0 0 0 0 127 0" result="hardAlpha"/>
<feMorphology radius="2" operator="dilate" in="SourceAlpha" result="effect1_dropShadow_954_14"/>
<feOffset/>
<feGaussianBlur stdDeviation="2"/>
<feComposite in2="hardAlpha" operator="out"/>
<feColorMatrix type="matrix" values="0 0 0 0 0 0 0 0 0 0 0 0 0 0 0 0 0 0 0.25 0"/>
<feBlend mode="normal" in2="BackgroundImageFix" result="effect1_dropShadow_954_14"/>
<feBlend mode="normal" in="SourceGraphic" in2="effect1_dropShadow_954_14" result="shape"/>
</filter>
<linearGradient id="paint0_linear_954_14" x1="98" y1="6" x2="98" y2="190" gradientUnits="userSpaceOnUse">
<stop stop-color="#00D3DA"/>
<stop offset="0.171875" stop-color="#00B4E9"/>
<stop offset="0.333333" stop-color="#0094F4"/>
<stop offset="0.510417" stop-color="#017EFF"/>
<stop offset="0.6875" stop-color="#245AEA"/>
<stop offset="0.854167" stop-color="#3C3FD8"/>
<stop offset="1" stop-color="#6D0EBA"/>
</linearGradient>
</defs>
</svg>
