<svg width="35" height="31" viewBox="0 0 35 31" fill="none" xmlns="http://www.w3.org/2000/svg">
<path d="M24 16.5C24 20.0899 21.0899 23 17.5 23C13.9101 23 11 20.0899 11 16.5C11 12.9101 13.9101 10 17.5 10C21.0899 10 24 12.9101 24 16.5Z" stroke="#0075FF" stroke-width="2"/>
<path d="M25.2023 4.22791L25.4993 4.54999H25.9375H31.2897C32.5984 4.54999 33.6665 5.61956 33.6665 6.91345V27.0942C33.6665 28.3881 32.5984 29.4577 31.2897 29.4577H4.27524C2.96655 29.4577 1.89844 28.3881 1.89844 27.0942V6.91345C1.89844 5.61956 2.96655 4.54999 4.27524 4.54999H9.62748H10.068L10.3654 4.22493L12.439 1.95801C12.8941 1.4705 13.5407 1.18652 14.2031 1.18652H21.3615C21.6902 1.18676 22.0152 1.25527 22.3155 1.38757C22.616 1.51989 22.8851 1.71304 23.1059 1.95448L23.1087 1.95757L25.2023 4.22791Z" stroke="#0075FF" stroke-width="2"/>
</svg>
