<svg width="19" height="16" viewBox="0 0 19 16" fill="none" xmlns="http://www.w3.org/2000/svg">
<path d="M18.4859 14.2975L14.9065 11.5162C15.772 10.0793 16.1292 8.39314 15.9208 6.72873C15.737 5.24621 15.1177 3.85149 14.1412 2.72093C13.1648 1.59037 11.875 0.77476 10.435 0.37723C8.99497 -0.0203005 7.46942 0.0181068 6.05125 0.487595C4.63308 0.957083 3.38597 1.83657 2.46764 3.01483C1.5493 4.19309 1.00098 5.6172 0.892022 7.10709C0.78306 8.59698 1.11835 10.0857 1.85549 11.385C2.59263 12.6844 3.69851 13.7359 5.03329 14.4068C6.36807 15.0776 7.87179 15.3375 9.35431 15.1537C11.0192 14.9494 12.5671 14.1913 13.7491 13.0011L17.3204 15.793C17.4184 15.87 17.5307 15.9269 17.6507 15.9603C17.7708 15.9937 17.8963 16.003 18.02 15.9877C18.1437 15.9723 18.2631 15.9327 18.3714 15.8709C18.4797 15.8092 18.5747 15.7267 18.6509 15.628C18.7279 15.53 18.7848 15.4178 18.8182 15.2977C18.8516 15.1776 18.8609 15.0521 18.8456 14.9284C18.8302 14.8047 18.7906 14.6853 18.7288 14.577C18.6671 14.4688 18.5846 14.3738 18.4859 14.2975ZM2.80322 8.35497C2.66538 7.24308 2.86034 6.11529 3.36345 5.11421C3.86657 4.11312 4.65525 3.28371 5.62974 2.73086C6.60424 2.178 7.7208 1.92654 8.83821 2.00826C9.95563 2.08998 11.0237 2.50122 11.9074 3.18997C12.7911 3.87872 13.4507 4.81405 13.8028 5.87768C14.155 6.94131 14.1838 8.08547 13.8856 9.16547C13.5875 10.2455 12.9758 11.2128 12.1278 11.9452C11.2799 12.6775 10.2339 13.142 9.12199 13.2798C7.63099 13.4647 6.12763 13.0496 4.94264 12.1261C3.75764 11.2025 2.98807 9.84597 2.80322 8.35497Z" fill="#0075FF" fill-opacity="0.49"/>
</svg>
