<svg width="48" height="48" viewBox="0 0 48 48" fill="none" xmlns="http://www.w3.org/2000/svg">
<circle cx="24" cy="24" r="23" stroke="#0075FF" stroke-width="2"/>
<path fill-rule="evenodd" clip-rule="evenodd" d="M31.0383 26.3076C27.159 26.3076 23.8462 26.8942 23.8462 29.2432C23.8462 31.5921 27.138 32.1997 31.0383 32.1997C34.9176 32.1997 38.2295 31.6122 38.2295 29.2641C38.2295 26.9161 34.9387 26.3076 31.0383 26.3076Z" fill="#0075FF" stroke="#0075FF" stroke-width="2" stroke-linecap="round" stroke-linejoin="round"/>
<path fill-rule="evenodd" clip-rule="evenodd" d="M17.1922 24.7575C19.7379 24.7575 21.8012 22.6932 21.8012 20.1474C21.8012 17.6017 19.7379 15.5383 17.1922 15.5383C14.6464 15.5383 12.5821 17.6017 12.5821 20.1474C12.5735 22.6846 14.6234 24.7489 17.1597 24.7575H17.1922Z" fill="#0075FF" stroke="#0075FF" stroke-width="2" stroke-linecap="round" stroke-linejoin="round"/>
<path fill-rule="evenodd" clip-rule="evenodd" d="M20.8634 28.3651C20.8015 28.6741 20.7692 29.0079 20.7692 29.3682C20.7692 31.2369 21.6317 32.4021 22.9997 33.0964C21.6757 33.7852 19.5376 33.9999 17.1921 33.9999C13.2918 33.9999 10 33.3924 10 31.0434C10 28.6945 13.3128 28.1079 17.1921 28.1079C18.5222 28.1079 19.7814 28.1787 20.8634 28.3651Z" fill="#0075FF"/>
<path d="M20.8634 28.3651L21.8439 28.5615C21.8969 28.2968 21.8407 28.022 21.688 27.7994C21.5353 27.5768 21.2991 27.4254 21.0331 27.3796L20.8634 28.3651ZM22.9997 33.0964L23.4612 33.9835C23.7937 33.8105 24.0016 33.4662 23.9997 33.0914C23.9978 32.7166 23.7865 32.3743 23.4523 32.2047L22.9997 33.0964ZM19.8829 28.1687C19.8068 28.5482 19.7692 28.9482 19.7692 29.3682H21.7692C21.7692 29.0676 21.7961 28.8 21.8439 28.5615L19.8829 28.1687ZM19.7692 29.3682C19.7692 30.4616 20.0235 31.4118 20.5262 32.207C21.0273 32.9998 21.7357 33.5763 22.5471 33.9881L23.4523 32.2047C22.8957 31.9222 22.4889 31.5689 22.2168 31.1384C21.9461 30.7102 21.7692 30.1434 21.7692 29.3682H19.7692ZM17.1921 34.9999C19.5332 34.9999 21.8979 34.7968 23.4612 33.9835L22.5382 32.2093C21.4534 32.7736 19.542 32.9999 17.1921 32.9999V34.9999ZM9 31.0434C9 31.8925 9.30806 32.6169 9.85182 33.1867C10.3725 33.7324 11.0699 34.0972 11.8116 34.3493C13.2844 34.85 15.2192 34.9999 17.1921 34.9999V32.9999C15.2648 32.9999 13.6035 32.8461 12.4553 32.4558C11.8865 32.2624 11.5172 32.0349 11.2988 31.806C11.1034 31.6013 11 31.3689 11 31.0434H9ZM17.1921 27.1079C15.2313 27.1079 13.2976 27.2524 11.8234 27.7467C11.0813 27.9955 10.3814 28.3568 9.85806 28.9C9.31101 29.4679 9 30.1922 9 31.0434H11C11 30.7202 11.1031 30.4903 11.2984 30.2876C11.5175 30.0602 11.8882 29.8344 12.4592 29.6429C13.6113 29.2567 15.2737 29.1079 17.1921 29.1079V27.1079ZM21.0331 27.3796C19.8729 27.1797 18.551 27.1079 17.1921 27.1079V29.1079C18.4934 29.1079 19.6899 29.1776 20.6936 29.3505L21.0331 27.3796Z" fill="#0075FF"/>
<path fill-rule="evenodd" clip-rule="evenodd" d="M30.7639 23.2191C33.3097 23.2191 35.373 21.1549 35.373 18.6091C35.373 16.0634 33.3097 14 30.7639 14C28.2181 14 26.1538 16.0634 26.1538 18.6091C26.1452 21.1463 28.1952 23.2106 30.7314 23.2191H30.7639Z" fill="#0075FF" stroke="#0075FF" stroke-width="2" stroke-linecap="round" stroke-linejoin="round"/>
</svg>
