<svg width="16" height="14" viewBox="0 0 16 14" fill="none" xmlns="http://www.w3.org/2000/svg">
<circle cx="9.84689" cy="3.457" r="3.12375" fill="#0075FF"/>
<path d="M15.6484 13.2746C15.6484 12.5128 15.4983 11.7584 15.2068 11.0546C14.9153 10.3508 14.4879 9.71123 13.9492 9.17253C13.4106 8.63384 12.771 8.20652 12.0672 7.91498C11.3633 7.62344 10.609 7.47339 9.84714 7.47339C9.08531 7.47339 8.33094 7.62344 7.6271 7.91498C7.34643 8.03124 6.0888 7.76174 5.8309 7.91964C5.44206 8.15769 6.06892 8.84866 5.74504 9.17253C5.37843 9.53915 4.74839 9.25495 4.49215 9.70464C4.37187 9.91572 4.49215 10.5971 4.48749 11.0546C4.47974 11.8164 4.0459 12.5128 4.0459 13.2746L9.84715 13.2746H15.6484Z" fill="#0075FF"/>
<path d="M1.37176 4.01001C1.18693 3.36867 1.50181 2.68902 2.11057 2.41535C2.85499 2.08069 3.72322 2.48295 3.94924 3.26721L4.4053 4.84971L4.47929 5.09547C4.72515 5.91209 5.12534 6.67399 5.65817 7.33989L6.2214 8.04377C6.39459 8.26021 6.60857 8.44058 6.8512 8.57465L7.51305 8.94037C8.05645 9.24063 8.29637 9.89477 8.07597 10.4752C7.8023 11.1959 6.947 11.4983 6.28111 11.1099L4.6654 10.1674C4.35628 9.98711 4.08414 9.74984 3.86337 9.46818L3.33558 8.79478C2.83574 8.15706 2.44548 7.44063 2.18077 6.67482L1.93393 5.96073L1.37176 4.01001Z" fill="#0075FF"/>
</svg>
