<svg width="18" height="14" viewBox="0 0 18 14" fill="none" xmlns="http://www.w3.org/2000/svg">
<path d="M0 1.75C0 1.28587 0.184374 0.840752 0.512563 0.512563C0.840752 0.184374 1.28587 0 1.75 0H9.625C10.0891 0 10.5342 0.184374 10.8624 0.512563C11.1906 0.840752 11.375 1.28587 11.375 1.75V3.5C11.375 3.73206 11.2828 3.95462 11.1187 4.11872C10.9546 4.28281 10.7321 4.375 10.5 4.375C10.2679 4.375 10.0454 4.28281 9.88128 4.11872C9.71719 3.95462 9.625 3.73206 9.625 3.5V1.75H1.75V12.25H9.625V10.5C9.625 10.2679 9.71719 10.0454 9.88128 9.88128C10.0454 9.71719 10.2679 9.625 10.5 9.625C10.7321 9.625 10.9546 9.71719 11.1187 9.88128C11.2828 10.0454 11.375 10.2679 11.375 10.5V12.25C11.375 12.7141 11.1906 13.1592 10.8624 13.4874C10.5342 13.8156 10.0891 14 9.625 14H1.75C1.28587 14 0.840752 13.8156 0.512563 13.4874C0.184374 13.1592 0 12.7141 0 12.25V1.75ZM13.3814 3.75638C13.5455 3.59234 13.768 3.50019 14 3.50019C14.232 3.50019 14.4545 3.59234 14.6186 3.75638L17.2436 6.38138C17.4077 6.54546 17.4998 6.76798 17.4998 7C17.4998 7.23202 17.4077 7.45454 17.2436 7.61862L14.6186 10.2436C14.4536 10.403 14.2326 10.4912 14.0031 10.4892C13.7737 10.4872 13.5543 10.3952 13.392 10.233C13.2298 10.0707 13.1378 9.85127 13.1358 9.62185C13.1338 9.39243 13.222 9.1714 13.3814 9.00638L14.5128 7.875H6.125C5.89294 7.875 5.67038 7.78281 5.50628 7.61872C5.34219 7.45462 5.25 7.23206 5.25 7C5.25 6.76794 5.34219 6.54538 5.50628 6.38128C5.67038 6.21719 5.89294 6.125 6.125 6.125H14.5128L13.3814 4.99362C13.2173 4.82954 13.1252 4.60702 13.1252 4.375C13.1252 4.14298 13.2173 3.92046 13.3814 3.75638Z" fill="#FF0000"/>
</svg>
