<svg width="23" height="28" viewBox="0 0 23 28" fill="none" xmlns="http://www.w3.org/2000/svg">
<path d="M16.3166 12.1279C15.9913 15.6919 16.9677 16.3399 17.2935 18.6078C20.8201 23.4678 10.0192 22.9719 9.5887 22.9818C8.99679 22.9953 -3.59534 23.4678 1.01122 18.6078C1.33687 16.3399 2.31372 15.6919 1.98813 12.1279C1.98813 8.19127 5.19567 5 9.15239 5C13.1091 5 16.3166 8.19127 16.3166 12.1279Z" fill="#0075FF"/>
<path d="M12.8574 24.3196C12.8574 25.172 12.451 25.9896 11.7276 26.5924C11.0043 27.1952 10.0232 27.5338 9.00021 27.5338C7.97723 27.5338 6.99615 27.1952 6.2728 26.5924C5.54944 25.9896 5.14307 25.172 5.14307 24.3196L9.00021 24.3196H12.8574Z" fill="#0075FF"/>
<circle cx="15.5" cy="8.5" r="7" fill="white" stroke="#0075FF"/>
<path d="M13.476 11.14C14.244 10.476 14.848 9.932 15.288 9.508C15.736 9.076 16.108 8.628 16.404 8.164C16.7 7.7 16.848 7.236 16.848 6.772C16.848 6.292 16.732 5.916 16.5 5.644C16.276 5.372 15.92 5.236 15.432 5.236C14.96 5.236 14.592 5.388 14.328 5.692C14.072 5.988 13.936 6.388 13.92 6.892H12.6C12.624 5.98 12.896 5.284 13.416 4.804C13.944 4.316 14.612 4.072 15.42 4.072C16.292 4.072 16.972 4.312 17.46 4.792C17.956 5.272 18.204 5.912 18.204 6.712C18.204 7.288 18.056 7.844 17.76 8.38C17.472 8.908 17.124 9.384 16.716 9.808C16.316 10.224 15.804 10.708 15.18 11.26L14.64 11.74H18.444V12.88H12.612V11.884L13.476 11.14Z" fill="#0075FF"/>
</svg>
