<svg width="18" height="23" viewBox="0 0 18 23" fill="none" xmlns="http://www.w3.org/2000/svg">
<path d="M16.3166 7.12791C15.9913 10.6919 16.9677 11.3399 17.2935 13.6078C20.8201 18.4678 10.0192 17.9719 9.5887 17.9818C8.99679 17.9953 -3.59534 18.4678 1.01122 13.6078C1.33687 11.3399 2.31372 10.6919 1.98813 7.12791C1.98813 3.19127 5.19567 0 9.15239 0C13.1091 0 16.3166 3.19127 16.3166 7.12791Z" fill="#0075FF"/>
<path d="M12.8574 19.3196C12.8574 20.172 12.451 20.9896 11.7276 21.5924C11.0043 22.1952 10.0232 22.5338 9.00021 22.5338C7.97723 22.5338 6.99615 22.1952 6.2728 21.5924C5.54944 20.9896 5.14307 20.172 5.14307 19.3196L9.00021 19.3196H12.8574Z" fill="#0075FF"/>
</svg>
