<svg width="218" height="352" viewBox="0 0 218 352" fill="none" xmlns="http://www.w3.org/2000/svg">
<path d="M131.251 273.753C131.251 273.753 130.349 289.374 135.041 302.659L92.6022 332.462C92.6022 332.462 89.4092 323.306 94.1777 312.891C98.9463 302.475 100.981 294.498 98.9593 284.126L131.251 273.753Z" fill="#6E0DB9"/>
<path d="M108.745 299.546L100.272 301.818" stroke="white" stroke-width="0.873046" stroke-miterlimit="10" stroke-linecap="round"/>
<path d="M68.3893 260.199C68.3893 260.199 58.6761 278.788 49.4088 281.166L14.4229 250.42C14.4229 250.42 18.324 242.208 32.4155 247.08C32.4155 247.08 35.9309 248.733 41.0006 246.555C43.4039 245.526 45.8591 243.455 48.2243 239.723L68.3893 260.199Z" fill="#6E0DB9"/>
<path d="M41.653 256.569L38.502 248.417" stroke="white" stroke-width="0.873046" stroke-miterlimit="10" stroke-linecap="round"/>
<path d="M68.2921 131.009L99.0636 135.706C99.3106 135.743 99.5621 135.725 99.8015 135.653C100.04 135.582 100.26 135.458 100.446 135.292C100.631 135.126 100.777 134.921 100.874 134.693C100.97 134.463 101.014 134.216 101.004 133.968L96.1488 113.39C95.9796 112.671 95.5947 112.021 95.0451 111.525C94.4948 111.029 93.8072 110.711 93.0717 110.613L61.8108 106.454C61.5714 106.415 61.3252 106.436 61.0966 106.517C60.8679 106.597 60.6636 106.735 60.5028 106.916C60.3419 107.097 60.2307 107.317 60.1781 107.552C60.1262 107.788 60.1354 108.034 60.2055 108.265L66.6053 129.553C66.7181 129.93 66.9368 130.267 67.2356 130.525C67.5344 130.783 67.9011 130.951 68.2921 131.009Z" fill="#BEDDFA"/>
<path d="M91.9608 119.256L92.332 121.054L90.1928 120.755L90.362 121.575L92.5012 121.874L92.8889 123.751L90.4823 123.415L90.6515 124.235L94.0742 124.713L92.8076 118.578L89.3849 118.1L89.5541 118.92L91.9608 119.256ZM82.4356 118.293C82.0493 118.239 81.721 118.27 81.4507 118.387C81.1745 118.502 80.9824 118.704 80.8743 118.991C80.7604 119.278 80.7489 119.641 80.8399 120.082L81.4313 122.946L82.4386 123.087L81.878 120.372C81.7883 119.938 81.8296 119.621 82.0022 119.423C82.1735 119.218 82.4493 119.143 82.8297 119.196C83.21 119.249 83.5373 119.409 83.8116 119.675C84.0788 119.935 84.2573 120.283 84.3471 120.717L84.9076 123.432L85.9148 123.573L85.3543 120.858C85.2645 120.423 85.3059 120.107 85.4784 119.908C85.6498 119.704 85.9256 119.628 86.3059 119.681C86.6862 119.735 87.0135 119.894 87.2878 120.161C87.555 120.421 87.7335 120.768 87.8233 121.203L88.3838 123.918L89.3999 124.06L88.3972 119.203L87.3811 119.061L87.4957 119.617C87.2881 119.394 87.045 119.208 86.7664 119.061C86.4878 118.914 86.203 118.82 85.9118 118.779C85.5196 118.724 85.186 118.757 84.911 118.879C84.6359 119 84.4474 119.205 84.3453 119.493C84.1361 119.179 83.8564 118.914 83.5063 118.7C83.155 118.479 82.798 118.344 82.4356 118.293ZM78.2669 118.481C78.0484 118.234 77.7749 118.013 77.4462 117.819C77.1176 117.624 76.7661 117.501 76.3917 117.449C75.9639 117.389 75.5965 117.44 75.2896 117.603C74.9755 117.759 74.7563 118.011 74.6319 118.358C74.5075 118.706 74.4956 119.124 74.5963 119.612C74.697 120.1 74.8884 120.551 75.1706 120.967C75.4514 121.378 75.7926 121.716 76.194 121.984C76.5883 122.244 76.9994 122.404 77.4272 122.464C77.8016 122.516 78.1192 122.489 78.38 122.383C78.6396 122.271 78.8385 122.116 78.9766 121.919L79.599 124.933L80.6151 125.075L79.1356 117.909L78.1195 117.767L78.2669 118.481ZM75.6303 119.756C75.5611 119.421 75.573 119.143 75.6659 118.922C75.7516 118.695 75.8976 118.535 76.1039 118.444C76.303 118.347 76.5333 118.316 76.7947 118.353C77.0502 118.388 77.3072 118.487 77.5657 118.649C77.8181 118.809 78.0412 119.023 78.2348 119.29C78.4224 119.556 78.5508 119.856 78.6199 120.191C78.6891 120.526 78.6814 120.81 78.5969 121.044C78.5052 121.271 78.3599 121.433 78.1607 121.531C77.9557 121.628 77.7254 121.658 77.4699 121.623C77.2084 121.586 76.9514 121.487 76.6989 121.327C76.4393 121.159 76.215 120.939 76.0262 120.668C75.8314 120.395 75.6994 120.091 75.6303 119.756ZM72.0784 117.719L72.6335 120.408C72.6711 120.59 72.6568 120.716 72.5906 120.787C72.5172 120.851 72.3766 120.868 72.1686 120.839L71.5446 120.752L71.7175 121.589L72.5197 121.701C72.9773 121.765 73.306 121.708 73.506 121.531C73.706 121.353 73.7568 121.027 73.6585 120.551L73.1035 117.862L73.6828 117.943L73.5136 117.124L72.9342 117.043L72.6849 115.835L71.6599 115.692L71.9092 116.9L70.7148 116.733L70.884 117.552L72.0784 117.719ZM65.3572 115.984L69.844 123.544L70.8958 123.691L69.4098 121.19L70.3576 116.683L69.2256 116.525L68.6084 120.033L66.409 116.131L65.3572 115.984Z" fill="#E66161"/>
<path d="M110.506 45.4315L101.098 42.0403" stroke="#DADEEB" stroke-width="0.873046" stroke-miterlimit="10" stroke-linecap="round"/>
<path d="M111.412 49.5481L101.471 50.7092" stroke="#DADEEB" stroke-width="0.873046" stroke-miterlimit="10" stroke-linecap="round"/>
<path d="M45.4978 238.25C63.2297 205.795 86.0862 183.973 97.5503 173.042C99.3148 171.359 101.483 169.288 102.225 168.485C107.715 163.109 108.277 153.026 108.277 153.026L135.486 161.405C135.488 161.377 135.488 161.348 135.486 161.32C135.486 161.354 135.486 161.379 135.507 161.405L135.722 161.469L172.09 152.075C172.949 155.26 179.684 183.842 160.437 205.646C156.32 210.313 149.462 222.227 143.422 238.322C137.413 254.306 134.22 264.456 134.22 275.201L92.6186 288.657C92.6186 268.04 103.62 236.947 108.033 225.183C110.841 217.643 114.071 210.264 117.707 203.083C105.148 215.374 85.8583 236.371 73.2859 267.373C73.2692 267.356 43.9482 241.09 45.4978 238.25Z" fill="#0D0F44"/>
<path d="M131.856 266.733L101.063 277.058" stroke="#DADEEB" stroke-width="0.873046" stroke-miterlimit="10" stroke-linecap="round"/>
<path d="M49.1865 231.763C49.1865 231.763 60.2992 246.606 69.1068 253.597" stroke="#DADEEB" stroke-width="0.873046" stroke-miterlimit="10" stroke-linecap="round"/>
<path d="M118.742 201.029C118.742 201.029 124.361 190.426 128.186 185.631L124.627 179.998" stroke="#DADEEB" stroke-width="0.873046" stroke-miterlimit="10" stroke-linecap="round"/>
<path d="M127.104 81.4089C127.104 81.4089 121.683 84.9023 105.725 116.874C102.655 123.019 98.1276 128.002 81.834 130.612L97.4362 148.454C97.4362 148.454 122.275 141.254 124.4 129.33C126.525 117.408 127.104 81.4089 127.104 81.4089Z" fill="#00CFDC"/>
<path d="M114.232 112.399C115.653 99.0408 120.996 85.8546 129.212 79.6024C134.646 75.469 139.977 74.73 147.278 74.73C165.237 74.73 181.419 94.6424 185.78 116.285C186.896 120.168 187.207 124.236 186.694 128.242C185.802 138.298 180.174 146.049 172.448 151.092C152.231 165.718 117.593 156.943 117.593 156.943C112.738 137.726 112.927 122.549 114.232 112.399Z" fill="#00CFDC"/>
<path d="M125.701 90.6841C125.701 90.6841 114.542 108.645 122.13 145.737" stroke="#DADEEB" stroke-width="0.873046" stroke-miterlimit="10" stroke-linecap="round"/>
<path d="M72.9065 122.451C72.6138 122.469 72.3287 122.554 72.0749 122.7C71.821 122.847 71.6045 123.051 71.4437 123.295C71.2836 123.539 71.1823 123.818 71.1495 124.108C71.1167 124.399 71.1525 124.693 71.2539 124.966L80.9679 154.885C81.1279 155.416 81.4321 155.893 81.846 156.265C82.2599 156.637 82.7683 156.889 83.3156 156.994L124.951 164.343C125.104 164.369 125.259 164.38 125.414 164.377C125.712 164.362 126.003 164.287 126.271 164.156C126.538 164.025 126.775 163.84 126.968 163.614C127.161 163.388 127.306 163.125 127.393 162.841C127.48 162.558 127.508 162.259 127.474 161.964L119.851 133.058C119.596 132.057 119.055 131.151 118.293 130.448C117.532 129.746 116.582 129.278 115.559 129.1L73.3234 122.502C73.187 122.469 73.0467 122.452 72.9065 122.451Z" fill="#6E0DB9"/>
<path d="M73.9021 121.725C74.1384 121.598 74.4014 121.527 74.6704 121.52C74.8145 121.514 74.9586 121.526 75.0996 121.554L117.336 128.151C118.359 128.329 119.309 128.798 120.07 129.5C120.832 130.203 121.373 131.109 121.628 132.11L129.247 161.016C129.292 161.45 129.206 161.887 129.003 162.273C128.798 162.659 128.485 162.976 128.101 163.185L126.336 164.116C126.721 163.908 127.035 163.59 127.239 163.204C127.443 162.818 127.528 162.381 127.483 161.947L119.86 133.041C119.604 132.039 119.063 131.134 118.302 130.431C117.54 129.729 116.59 129.26 115.568 129.083L73.3312 122.485C72.9272 122.404 72.508 122.463 72.1421 122.651L73.9021 121.725Z" fill="#6E0DB9"/>
<path d="M147.922 140.066C147.922 140.066 139.089 134.754 132.668 132.529C126.246 130.304 120.332 129.138 119.129 129.894C118.245 130.445 117.593 133.921 123.035 138.362C123.035 138.362 118.104 140.101 113.442 140.07C109.017 140.037 105.441 140.032 104.467 143.914C104.309 144.545 104.536 145.558 105.068 146.796C106.093 148.994 107.391 151.055 108.931 152.933C110.212 154.54 111.611 156.052 113.116 157.455C117.537 161.554 123.022 164.715 128.058 163.771C134.871 162.482 141.529 160.478 147.918 157.792C147.918 157.792 157.872 154.957 147.922 140.066Z" fill="#F3ABAA"/>
<path d="M112.091 147.975C113.276 147.98 114.461 147.909 115.637 147.762C115.693 147.754 115.747 147.735 115.796 147.707C115.846 147.679 115.888 147.641 115.923 147.596C115.993 147.505 116.023 147.39 116.008 147.277C115.992 147.164 115.933 147.061 115.841 146.991C115.75 146.922 115.635 146.892 115.52 146.908C115.469 146.908 110.37 147.599 106.283 146.382C106.229 146.366 106.173 146.361 106.117 146.367C106.06 146.373 106.006 146.389 105.956 146.416C105.907 146.443 105.863 146.479 105.828 146.523C105.792 146.566 105.765 146.617 105.749 146.671C105.733 146.724 105.728 146.78 105.734 146.837C105.739 146.892 105.757 146.946 105.783 146.996C105.81 147.045 105.847 147.089 105.89 147.124C105.934 147.16 105.985 147.186 106.039 147.202C108.01 147.74 110.047 148 112.091 147.975Z" fill="#FF2633"/>
<path d="M112.705 153.454C113.786 153.454 115.168 153.407 116.898 153.27C116.954 153.266 117.01 153.25 117.06 153.225C117.11 153.199 117.155 153.164 117.192 153.122C117.228 153.078 117.257 153.029 117.273 152.975C117.291 152.921 117.298 152.865 117.292 152.809C117.283 152.696 117.228 152.592 117.142 152.519C117.055 152.447 116.943 152.411 116.829 152.421C111.837 152.813 109.773 152.421 109.752 152.421C109.64 152.399 109.524 152.422 109.43 152.485C109.336 152.549 109.271 152.647 109.249 152.757C109.227 152.868 109.251 152.982 109.313 153.076C109.376 153.17 109.473 153.234 109.584 153.257C110.616 153.415 111.66 153.48 112.705 153.454Z" fill="#FF2633"/>
<path d="M119.327 157.732H120.456C120.57 157.732 120.68 157.687 120.76 157.607C120.84 157.527 120.885 157.418 120.885 157.306C120.885 157.192 120.84 157.083 120.76 157.003C120.68 156.923 120.57 156.878 120.456 156.878C115.735 156.964 114.194 156.511 114.181 156.507C114.072 156.473 113.954 156.483 113.854 156.535C113.752 156.588 113.676 156.679 113.643 156.787C113.608 156.895 113.618 157.012 113.672 157.112C113.724 157.213 113.815 157.288 113.923 157.323C113.983 157.331 115.327 157.732 119.327 157.732Z" fill="#FF2633"/>
<path d="M123.191 161.832C123.912 161.832 124.732 161.798 125.667 161.725C125.724 161.721 125.779 161.706 125.83 161.681C125.88 161.655 125.925 161.621 125.962 161.578C126.036 161.492 126.074 161.38 126.064 161.266C126.056 161.153 126.003 161.048 125.917 160.974C125.83 160.9 125.717 160.862 125.603 160.872C120.732 161.256 119.191 160.444 119.165 160.418C119.066 160.363 118.95 160.348 118.84 160.378C118.731 160.408 118.638 160.479 118.581 160.577C118.524 160.674 118.508 160.789 118.537 160.898C118.565 161.006 118.635 161.099 118.732 161.157C118.791 161.192 119.907 161.832 123.191 161.832Z" fill="#FF2633"/>
<path d="M168.152 83.8597C168.152 83.8597 188.296 98.4898 194.369 131.572C194.369 131.572 195.961 140.497 190.609 144.96C185.257 149.422 167.25 158.702 144.333 159.236C144.333 159.236 154.712 153.88 147.922 140.066C147.922 140.066 161.821 135.027 165.581 129.702C169.34 124.377 158.172 108.846 158.172 108.846C158.172 108.846 143.793 64.2117 168.152 83.8597Z" fill="#00CFDC"/>
<path d="M161.911 107.424C161.911 107.424 169.465 125.999 164.237 131.086C162.327 132.947 158.82 135.996 148.905 139.694" stroke="#DADEEB" stroke-width="0.873046" stroke-miterlimit="10" stroke-linecap="round"/>
<path d="M96.2601 139.84C94.1144 139.537 92.3971 141.301 92.4443 143.773C92.4916 146.245 94.2905 148.504 96.4491 148.808C98.6085 149.111 100.312 147.343 100.261 144.866C100.209 142.389 98.4149 140.143 96.2601 139.84Z" fill="white"/>
<path d="M71.54 126C71.54 126 57.6802 139.532 76.9999 154.88C76.9999 154.88 86.104 159.859 90.6538 153.723C90.6538 153.723 93.1822 147.377 87.117 141.394C86.1315 140.188 84.8387 139.269 83.3737 138.729C81.1464 138.025 75.6865 135.314 74.2703 133.294C72.8533 131.273 71.54 126 71.54 126Z" fill="#F3ABAA"/>
<path d="M85.2486 144.763C86.0146 144.801 86.7738 144.601 87.421 144.191C87.7221 143.984 87.9706 143.711 88.1482 143.392C88.325 143.073 88.4256 142.718 88.4424 142.355C88.4424 142.241 88.3974 142.133 88.3166 142.053C88.2358 141.973 88.1268 141.928 88.0132 141.928C87.8997 141.928 87.7899 141.973 87.7099 142.053C87.6291 142.133 87.5841 142.241 87.5841 142.355C87.5681 142.584 87.4995 142.806 87.3829 143.005C87.267 143.203 87.1069 143.372 86.9141 143.499C86.2273 143.969 84.7036 144.277 81.3772 143.073C77.7718 141.745 77.1148 141.194 77.0545 141.134C76.9859 141.053 76.8899 141 76.7847 140.986C76.6788 140.971 76.5721 140.997 76.4844 141.057C76.3899 141.121 76.3258 141.219 76.3045 141.331C76.2839 141.442 76.3083 141.557 76.3723 141.65C76.5057 141.851 77.2306 142.462 81.0936 143.871C82.4177 144.401 83.8232 144.703 85.2486 144.763Z" fill="#FF2633"/>
<path d="M86.5368 149.145C89.9706 149.145 90.8289 146.501 90.8289 146.472C90.8625 146.363 90.8518 146.247 90.7984 146.146C90.7451 146.047 90.6544 145.971 90.5454 145.938C90.4371 145.905 90.3197 145.915 90.2191 145.968C90.1185 146.021 90.043 146.111 90.0087 146.219C89.9706 146.344 89.0216 149.115 84.7036 148.047C81.304 147.193 80.4114 146.792 80.4114 146.792C80.31 146.746 80.1949 146.741 80.0897 146.777C79.9846 146.815 79.8977 146.891 79.8481 146.99C79.7986 147.09 79.7894 147.204 79.8237 147.31C79.8573 147.416 79.9312 147.504 80.0295 147.557C80.0638 147.557 80.9434 147.983 84.4894 148.876C85.1579 149.048 85.8454 149.139 86.5368 149.145Z" fill="#FF2633"/>
<path d="M86.4219 153.791C87.342 153.803 88.2551 153.632 89.1081 153.287C89.9603 152.941 90.7339 152.429 91.3833 151.78C91.4199 151.737 91.4481 151.688 91.4657 151.634C91.4832 151.581 91.4893 151.525 91.4855 151.469C91.4809 151.413 91.4657 151.358 91.4397 151.308C91.4146 151.259 91.3795 151.214 91.3361 151.177C91.2499 151.106 91.1387 151.07 91.0259 151.078C90.9138 151.087 90.8094 151.14 90.7354 151.224C90.6241 151.349 88.0272 154.213 83.2884 152.267C83.1832 152.222 83.0643 152.222 82.9591 152.266C82.8539 152.309 82.7701 152.392 82.7258 152.497C82.6824 152.602 82.6816 152.719 82.7251 152.824C82.7685 152.93 82.8524 153.013 82.9576 153.057C84.0521 153.527 85.2298 153.777 86.4219 153.791Z" fill="#FF2633"/>
<path d="M129.225 53.5831C131.411 58.3831 131.037 63.2425 128.388 64.4341C125.74 65.6258 120.946 62.5294 118.838 57.6913C116.421 52.14 117.834 48.2368 120.482 47.0452C123.13 45.8536 127.054 48.7793 129.225 53.5831Z" fill="#6E0DB9"/>
<path d="M118.833 57.6938C116.943 53.5406 117.262 49.3402 119.545 48.3124C121.827 47.2846 125.209 49.8179 127.099 53.9719C128.989 58.125 128.669 62.3254 126.386 63.3532C124.103 64.381 120.721 61.8469 118.833 57.6938Z" fill="#6E0DB9"/>
<path d="M133.921 66.0358L149.274 58.5623L155.07 72.9447L156.49 76.464C150.691 81.1611 142.682 80.8876 138.441 79.6236C135.9 78.864 135.53 77.4331 135.53 77.4331C136.372 74.4525 133.921 66.0358 133.921 66.0358Z" fill="#F3ABAA"/>
<path d="M135.101 70.9424C134.582 68.3329 133.921 66.0358 133.921 66.0358L149.275 58.5623C149.275 58.5623 148.515 68.1066 135.101 70.9424Z" fill="#0D0F44"/>
<path d="M136.041 66.8641C127.018 66.8641 119.705 59.1117 119.705 49.5475C119.705 39.9841 127.018 32.2317 136.041 32.2317C145.063 32.2317 152.377 39.9841 152.377 49.5475C152.377 59.1117 145.063 66.8641 136.041 66.8641Z" fill="#F3ABAA"/>
<path d="M151.592 43.9794C149.017 37.0658 143.205 32.2316 136.415 32.2316C127.264 32.2316 119.851 41.0026 119.851 51.8239C119.851 52.3961 119.851 52.9645 119.911 53.5321L119.151 53.7584C118.937 52.4411 118.829 51.1085 118.83 49.7744C118.83 37.8171 127.277 28.1279 137.716 28.1279C146.008 28.1279 152.022 31.331 154.425 43.142L151.592 43.9794Z" fill="#6E0DB9"/>
<path d="M112.46 35.7713C112.46 30.7496 116.692 26.6803 121.903 26.6803C122.834 26.6811 123.76 26.8136 124.654 27.0727C126.782 25.0841 129.485 23.8125 132.38 23.4392C138.141 22.739 146.154 25.2753 149.596 36.3992C150.027 38.47 150.172 40.5889 150.026 42.6978C150.026 42.6978 146.051 45.0171 142.24 40.9348C138.522 36.9546 134.968 36.7923 133.05 38.2186C130.475 40.1531 129.126 44.1973 121.916 44.8593C121.585 44.9287 121.242 44.918 120.915 44.8289C119.97 47.5184 119.675 50.3923 120.057 53.2159C115.254 48.771 114.395 43.6205 114.906 41.8567C113.34 40.214 112.465 38.0365 112.46 35.7713Z" fill="#0D0F44"/>
<path d="M145.896 48.2796C145.586 53.5406 147.689 57.939 150.587 58.1013C153.485 58.2636 156.849 53.6647 157.073 48.3992C157.33 42.3482 154.604 39.2175 151.703 39.0468C148.802 38.8762 146.205 43.0187 145.896 48.2796Z" fill="#6E0DB9"/>
<path d="M152.069 56.3901C149.567 56.2453 147.754 52.4373 148.019 47.8865C148.283 43.3348 150.527 39.7638 153.028 39.9093C155.529 40.0541 157.342 43.8621 157.077 48.413C156.812 52.9646 154.57 56.5356 152.069 56.3901Z" fill="#6E0DB9"/>
<path d="M133.231 48.6022C132.813 47.3984 132.978 46.2487 133.601 46.0346C134.224 45.8205 135.068 46.6228 135.486 47.8266C135.905 49.0304 135.738 50.1793 135.116 50.3934C134.493 50.6083 133.649 49.806 133.231 48.6022Z" fill="#0D0F44"/>
<path d="M124.234 51.6172C123.811 50.4073 123.977 49.2515 124.603 49.0351C125.229 48.8188 126.079 49.6241 126.501 50.834C126.924 52.0439 126.759 53.1997 126.132 53.4161C125.507 53.6325 124.657 52.8271 124.234 51.6172Z" fill="#0D0F44"/>
<path d="M134.283 62.0476C133.888 60.7236 135.569 58.254 138.629 59.1381" stroke="#0D0F44" stroke-width="0.873046" stroke-miterlimit="10" stroke-linecap="round"/>
<path d="M129.109 51.8667L130.195 56.6408C130.227 56.7787 130.286 56.9082 130.371 57.0225C130.455 57.136 130.561 57.2313 130.684 57.3021C130.808 57.373 130.943 57.4179 131.084 57.4347C131.225 57.4507 131.369 57.4377 131.504 57.3966L132.62 57.0598" stroke="#0D0F44" stroke-width="0.873046" stroke-miterlimit="10" stroke-linecap="round"/>
</svg>
