<svg width="16" height="18" viewBox="0 0 16 18" fill="none" xmlns="http://www.w3.org/2000/svg">
<path d="M1.05822 5.56381C4.33975 3.80216 5.24625 3.45234 7.60942 1.65381C10.5939 3.72307 12.1303 4.49603 14.7308 5.56381C14.4445 13.853 9.51058 16.6923 7.60942 16.6923C5.70825 16.6923 0.386339 13.2719 1.05822 5.56381Z" fill="#0075FF" stroke="#0075FF" stroke-width="2"/>
<path d="M8.32693 5.19L8.15093 10.503H6.85293L6.66593 5.19H8.32693ZM7.53493 13.077C7.25627 13.077 7.02527 12.9927 6.84193 12.824C6.66593 12.648 6.57793 12.4317 6.57793 12.175C6.57793 11.9183 6.66593 11.7057 6.84193 11.537C7.02527 11.361 7.25627 11.273 7.53493 11.273C7.80627 11.273 8.02993 11.361 8.20593 11.537C8.38193 11.7057 8.46993 11.9183 8.46993 12.175C8.46993 12.4317 8.38193 12.648 8.20593 12.824C8.02993 12.9927 7.80627 13.077 7.53493 13.077Z" fill="white"/>
</svg>
