<svg width="41" height="41" viewBox="0 0 41 41" fill="none" xmlns="http://www.w3.org/2000/svg">
<path d="M6.67587 4.89185C6.20278 4.89185 5.74907 5.07978 5.41455 5.4143C5.08002 5.74883 4.89209 6.20254 4.89209 6.67563V13.8108H13.811V4.89185H6.67587ZM11.5813 11.581H7.12182V7.12158H11.5813V11.581Z" fill="#444444"/>
<path d="M4.89209 34.3243C4.89209 34.7974 5.08002 35.2511 5.41455 35.5857C5.74907 35.9202 6.20278 36.1081 6.67587 36.1081H13.811V27.1892H4.89209V34.3243ZM7.12182 29.4189H11.5813V33.8784H7.12182V29.4189Z" fill="#444444"/>
<path d="M27.1895 36.1081H34.3246C34.7977 36.1081 35.2514 35.9202 35.5859 35.5857C35.9204 35.2511 36.1084 34.7974 36.1084 34.3243V27.1892H27.1895V36.1081ZM29.4192 29.4189H33.8786V33.8784H29.4192V29.4189Z" fill="#444444"/>
<path d="M34.3246 4.89185H27.1895V13.8108H36.1084V6.67563C36.1084 6.20254 35.9204 5.74883 35.5859 5.4143C35.2514 5.07978 34.7977 4.89185 34.3246 4.89185ZM33.8786 11.581H29.4192V7.12158H33.8786V11.581Z" fill="#444444"/>
<path d="M22.73 11.581V9.35132H18.2705V13.8108H20.5002V11.581H22.73Z" fill="#444444"/>
<path d="M13.811 13.8108H16.0408V16.0405H13.811V13.8108Z" fill="#444444"/>
<path d="M16.0405 16.0405H20.5V18.2703H16.0405V16.0405Z" fill="#444444"/>
<path d="M22.7297 7.12158V9.35131H24.9594V4.89185H16.0405V9.35131H18.2703V7.12158H22.7297Z" fill="#444444"/>
<path d="M4.89209 16.0405H7.12182V20.5H4.89209V16.0405Z" fill="#444444"/>
<path d="M13.811 18.2703V20.5H11.5813V16.0405H9.35155V20.5H7.12182V22.7297H4.89209V24.9594H9.35155V22.7297H11.5813V24.9594H13.811V22.7297H16.0407V18.2703H13.811Z" fill="#444444"/>
<path d="M22.7297 18.2702H24.9595V20.5H27.1892V18.2702H29.4189V16.0405H24.9595V11.5811H22.7297V13.8108H20.5V16.0405H22.7297V18.2702Z" fill="#444444"/>
<path d="M20.5 33.8784H16.0405V36.1081H24.9594V33.8784H22.7297V31.6487H20.5V33.8784Z" fill="#444444"/>
<path d="M24.9597 22.7297V20.5H22.73V18.2703H20.5002V20.5H18.2705V22.7297H20.5002V24.9595H22.73V22.7297H24.9597Z" fill="#444444"/>
<path d="M33.8784 22.7297H36.1081V24.9595H33.8784V22.7297Z" fill="#444444"/>
<path d="M24.9595 22.7297H31.6487V24.9595H24.9595V22.7297Z" fill="#444444"/>
<path d="M33.8784 16.0405H31.6487V18.2703H29.4189V20.5H31.6487V22.7297H33.8784V20.5H36.1081V18.2703H33.8784V16.0405Z" fill="#444444"/>
<path d="M22.73 24.9595H24.9597V31.6487H22.73V24.9595Z" fill="#444444"/>
<path d="M16.0405 31.6487H18.2703V29.4189H20.5V27.1892H18.2703V22.7297H16.0405V31.6487Z" fill="#444444"/>
</svg>
