<svg width="255" height="299" viewBox="0 0 255 299" fill="none" xmlns="http://www.w3.org/2000/svg">
<path d="M53.4988 142.731C53.4988 142.731 46.7821 143.146 43.6559 139.569C42.0555 137.741 38.1167 133.881 33.1331 131.668C28.1495 129.454 33.6016 138.404 33.4109 139.129C33.1622 140.099 23.9536 133.811 22.5688 135.792C21.184 137.774 19.7038 143.15 25.9354 148.547C32.167 153.943 51.7242 161.72 57.1722 161.086C62.6202 160.452 60.4352 147.842 53.4988 142.731Z" fill="#F3ABAA"/>
<path d="M34.2944 139.697L38.0052 143.2" stroke="#0D0F44" stroke-width="0.916209" stroke-miterlimit="10" stroke-linecap="round"/>
<path d="M192.965 100.443C192.965 100.443 194.391 97.4587 194.623 91.9708C194.839 86.7438 196.124 76.9204 199.288 76.9204C200.785 76.9204 203.961 78.2424 203.7 87.5937C203.7 87.5937 204.404 91.3866 210.93 84.3276C217.456 77.2685 220.023 77.7205 221.955 79.2086C225.379 81.8532 230.956 88.6506 226.279 98.5287C221.603 108.406 205.901 116.352 205.901 116.352L192.965 100.443Z" fill="#F3ABAA"/>
<path d="M221.76 80.937C221.76 80.937 216.884 86.8436 214.115 88.3982" stroke="#0D0F44" stroke-width="0.916209" stroke-miterlimit="10" stroke-linecap="round"/>
<path d="M223.796 84.6716C223.796 84.6716 218.924 90.5783 216.151 92.1328" stroke="#0D0F44" stroke-width="0.916209" stroke-miterlimit="10" stroke-linecap="round"/>
<path d="M225.583 89.1235C225.583 89.1235 220.711 95.0219 217.938 96.5847" stroke="#0D0F44" stroke-width="0.916209" stroke-miterlimit="10" stroke-linecap="round"/>
<path d="M225.583 94.8308C224.051 96.6705 222.425 98.4285 220.711 100.099" stroke="#0D0F44" stroke-width="0.916209" stroke-miterlimit="10" stroke-linecap="round"/>
<path d="M183.132 239.588L137.79 207.369C136.392 206.376 134.791 205.705 133.102 205.405C131.414 205.106 129.68 205.185 128.026 205.636L57.5421 224.815C56.3256 225.145 55.217 225.787 54.327 226.679C53.4371 227.571 52.797 228.682 52.4708 229.898C52.1447 231.116 52.1438 232.397 52.4684 233.614C52.7931 234.832 53.4317 235.943 54.3205 236.836L111.984 295.053C113.902 296.994 116.472 298.154 119.197 298.307C121.921 298.46 124.605 297.596 126.728 295.882L183.468 249.901C184.243 249.27 184.861 248.47 185.275 247.561C185.69 246.652 185.889 245.66 185.856 244.662C185.824 243.663 185.561 242.686 185.089 241.806C184.616 240.926 183.946 240.167 183.132 239.588Z" fill="#0D0F44"/>
<path d="M52.5295 223.725L52.2227 232.927L56.7254 236.762L52.5295 223.725Z" fill="#0D0F44"/>
<path d="M185.855 238.871V245.781L178.923 249.4L185.855 238.871Z" fill="#0D0F44"/>
<path d="M183.133 233.603L137.791 201.379C136.393 200.386 134.792 199.715 133.104 199.416C131.415 199.116 129.681 199.195 128.027 199.647L57.543 218.826C56.3265 219.155 55.2179 219.798 54.3279 220.69C53.438 221.582 52.7979 222.692 52.4718 223.909C52.1456 225.126 52.1448 226.407 52.4694 227.625C52.794 228.842 53.4326 229.953 54.3215 230.847L111.986 289.064C113.905 291.002 116.477 292.157 119.202 292.307C121.926 292.456 124.608 291.589 126.729 289.871L183.468 243.911C184.242 243.281 184.861 242.481 185.275 241.572C185.689 240.664 185.887 239.672 185.854 238.674C185.822 237.677 185.559 236.699 185.087 235.82C184.615 234.941 183.946 234.181 183.133 233.603Z" fill="#22319E"/>
<path d="M65.5563 232.094L86.287 253.014L86.9752 250.113C88.0323 245.424 91.3326 230.535 94.2098 214.958L68.2719 222.005C67.25 222.28 66.3182 222.818 65.5699 223.566C64.8215 224.314 64.2829 225.246 64.0078 226.268C63.7328 227.289 63.7311 228.365 64.0029 229.388C64.2746 230.411 64.8103 231.344 65.5563 232.094Z" fill="#DADEEB"/>
<path d="M146.638 263.924L145.323 266.22L173.911 243.062C174.561 242.533 175.079 241.861 175.427 241.099C175.774 240.337 175.94 239.505 175.912 238.668C175.884 237.831 175.664 237.012 175.267 236.274C174.87 235.536 174.308 234.9 173.625 234.415L160.258 224.919C157.187 238.388 152.619 251.471 146.638 263.924Z" fill="#DADEEB"/>
<path d="M86.2783 253.014L113.941 280.944C115.552 282.569 117.709 283.538 119.994 283.664C122.28 283.788 124.53 283.06 126.309 281.619L145.323 266.22L146.637 263.924C152.619 251.471 157.187 238.388 160.257 224.919C166.551 197.798 165.523 177.031 165.523 177.031L98.9905 177.123C99.2432 185.073 96.917 200.335 94.2011 214.959C91.3239 230.536 88.0236 245.424 86.9665 250.113L86.2783 253.014Z" fill="#0D0F44"/>
<path d="M139.738 207.096L133.776 209.376C133.776 209.376 133.597 228.281 111.619 276.761" stroke="#DADEEB" stroke-width="0.916209" stroke-miterlimit="10" stroke-linecap="round"/>
<path d="M133.694 90.0682C133.694 90.0682 151.522 91.0801 158.156 104C166.294 119.751 176.066 117.836 189.712 101.571C190.215 100.969 190.916 100.562 191.689 100.425C192.462 100.286 193.259 100.425 193.94 100.816C198.999 103.718 209.509 111.026 204.616 119.221C198.273 129.84 179.085 152.037 162.741 150.769C162.741 150.769 165.672 169.264 165.49 177.032C165.49 177.032 155.436 189.731 130.398 189.185C105.359 188.637 98.9571 177.122 98.9571 177.122C98.9571 177.122 98.6836 158.118 97.8584 153.185C97.8584 153.185 81.3822 165.5 57.1398 161.094C57.1398 161.094 60.3737 149.931 53.4663 142.731C53.4663 142.731 77.4187 136.12 80.0592 132.447C82.7003 128.775 89.9813 108.319 91.4241 105.26C93.3106 101.252 98.8872 94.5324 109.609 91.2995C120.331 88.0665 133.694 90.0682 133.694 90.0682Z" fill="#00CFDC"/>
<path d="M154.257 106.553C154.257 106.553 159.764 122.371 162.492 147.983" stroke="#DADEEB" stroke-width="0.916209" stroke-miterlimit="10" stroke-linecap="round"/>
<path d="M115.215 116.348C115.215 116.348 110.44 132.323 107.068 141.605C105.97 144.625 105.022 146.937 104.435 147.759C102.042 151.109 97.896 153.185 97.896 153.185" stroke="white" stroke-width="0.916209" stroke-miterlimit="10" stroke-linecap="round"/>
<path d="M57.9312 141.45C57.9312 141.45 65.0417 145.139 61.9778 159.921" stroke="white" stroke-width="0.916209" stroke-miterlimit="10" stroke-linecap="round"/>
<path d="M187.833 103.763C187.833 103.763 196.735 108.191 201.042 116.348" stroke="white" stroke-width="0.916209" stroke-miterlimit="10" stroke-linecap="round"/>
<path d="M139.081 68.8688C139.67 74.9458 142.859 79.6024 146.203 79.2647C149.549 78.9262 152.562 73.048 151.873 66.9772C151.081 60.0126 147.405 56.9162 144.061 57.2541C140.716 57.592 138.477 62.795 139.081 68.8688Z" fill="#6E0DB9"/>
<path d="M151.88 66.9764C151.369 61.7188 148.618 57.6919 145.733 57.9823C142.85 58.2726 140.927 62.7702 141.438 68.0279C141.949 73.2854 144.701 77.3122 147.584 77.0222C150.467 76.7315 152.391 72.2341 151.88 66.9764Z" fill="#6E0DB9"/>
<path d="M118.013 84.1539L134.787 83.5525L135.981 97.1466L136.277 100.473C129.381 102.207 121.876 99.169 118.237 96.6614C116.057 95.1567 116.134 93.8777 116.134 93.8777C117.821 91.7791 118.013 84.1539 118.013 84.1539Z" fill="#F3ABAA"/>
<path d="M136.225 90.3208C136.024 87.2478 136.074 84.4799 136.074 84.4799L116.667 80.7217C116.667 80.7217 120.377 91.1673 136.225 90.3208Z" fill="#0D0F44"/>
<path d="M139.938 86.1293C148.983 80.9085 151.827 68.9026 146.289 59.3135C140.751 49.7244 128.93 46.1832 119.885 51.4039C110.84 56.6247 107.997 68.6304 113.534 78.2196C119.072 87.8084 130.894 91.35 139.938 86.1293Z" fill="#F3ABAA"/>
<path d="M111.097 72.1823C109.676 63.7596 112.703 55.5497 119.51 51.6205C128.684 46.3252 141.195 50.8307 147.46 61.6806C147.792 62.2544 148.121 62.8238 148.389 63.4281L149.282 63.2154C148.734 61.7704 148.071 60.3722 147.297 59.0343C140.374 47.0453 126.295 42.2179 115.83 48.2583C107.517 53.0568 103.343 59.7478 107.773 72.9817L111.097 72.1823Z" fill="#6E0DB9"/>
<path d="M144.112 38.7747C141.204 33.7394 134.605 32.1077 129.381 35.123C128.449 35.6627 127.596 36.3313 126.851 37.1089C123.566 36.3453 120.119 36.6346 117.001 37.9358C110.821 40.5667 104.256 47.7472 107.246 60.8931C108.013 63.2182 109.096 65.4266 110.463 67.457C110.463 67.457 115.79 67.4821 117.248 61.1833C118.67 55.0418 122.138 52.8226 124.887 53.1425C128.59 53.5919 132.283 56.8668 139.894 53.3578C139.62 53.6361 140.267 53.2361 139.894 53.3578C142.401 55.507 145.344 57.6095 146.597 60.6618C148.838 53.4253 146.716 47.7647 145.183 46.292C145.802 43.7378 145.419 41.0482 144.112 38.7747Z" fill="#0D0F44"/>
<path d="M119.298 73.1968C122.655 78.2937 123.093 83.9207 120.282 85.7597C117.472 87.5993 111.435 84.9347 108.163 79.7845C104.401 73.8661 105.321 69.1506 108.13 67.3004C110.94 65.4502 115.942 68.1008 119.298 73.1968Z" fill="#6E0DB9"/>
<path d="M117.807 84.9015C120.23 83.3082 119.843 78.4412 116.943 74.0316C114.041 69.6214 109.725 67.3377 107.302 68.931C104.879 70.5246 105.266 75.3909 108.166 79.8012C111.068 84.2114 115.384 86.4948 117.807 84.9015Z" fill="#6E0DB9"/>
<path d="M133.247 66.7809C132.97 65.332 132.138 64.2755 131.389 64.4211C130.641 64.5668 130.259 65.8594 130.537 67.3082C130.815 68.7571 131.647 69.8139 132.395 69.6678C133.143 69.5225 133.525 68.2299 133.247 66.7809Z" fill="#0D0F44"/>
<path d="M144.501 63.7414C144.225 62.2838 143.39 61.22 142.636 61.3653C141.883 61.5107 141.498 62.81 141.775 64.2676C142.052 65.7251 142.887 66.7889 143.64 66.6436C144.393 66.4983 144.778 65.1989 144.501 63.7414Z" fill="#0D0F44"/>
<path d="M127.137 77.1848C126.971 78.776 129.413 81.2255 132.706 79.5651" stroke="#0D0F44" stroke-width="0.873046" stroke-miterlimit="10" stroke-linecap="round"/>
<path d="M138.204 67.0806L139.88 72.4959C139.928 72.6523 139.943 72.817 139.924 72.9797C139.906 73.1423 139.854 73.3001 139.772 73.442C139.69 73.5846 139.58 73.7085 139.447 73.8061C139.316 73.9043 139.165 73.9736 139.005 74.0116L137.691 74.3189" stroke="#0D0F44" stroke-width="0.873046" stroke-miterlimit="10" stroke-linecap="round"/>
</svg>
