<svg width="17" height="17" viewBox="0 0 17 17" fill="none" xmlns="http://www.w3.org/2000/svg">
<circle cx="8.5" cy="8.5" r="7.5" fill="#0075FF" stroke="#0075FF" stroke-width="2"/>
<path d="M8.64 4.78C9.33333 4.78 9.89 4.97 10.31 5.35C10.7367 5.72333 10.95 6.24 10.95 6.9C10.95 7.55333 10.74 8.05333 10.32 8.4C9.9 8.74 9.34333 8.91 8.65 8.91L8.61 9.68H7.38L7.33 7.98H7.78C8.36 7.98 8.80667 7.90333 9.12 7.75C9.43333 7.59667 9.59 7.31667 9.59 6.91C9.59 6.61667 9.50333 6.38333 9.33 6.21C9.16333 6.03667 8.93333 5.95 8.64 5.95C8.33333 5.95 8.09333 6.03333 7.92 6.2C7.75333 6.36667 7.67 6.59667 7.67 6.89H6.35C6.34333 6.48333 6.43 6.12 6.61 5.8C6.79 5.48 7.05333 5.23 7.4 5.05C7.75333 4.87 8.16667 4.78 8.64 4.78ZM7.99 12.07C7.73667 12.07 7.52667 11.9933 7.36 11.84C7.2 11.68 7.12 11.4833 7.12 11.25C7.12 11.0167 7.2 10.8233 7.36 10.67C7.52667 10.51 7.73667 10.43 7.99 10.43C8.23667 10.43 8.44 10.51 8.6 10.67C8.76 10.8233 8.84 11.0167 8.84 11.25C8.84 11.4833 8.76 11.68 8.6 11.84C8.44 11.9933 8.23667 12.07 7.99 12.07Z" fill="white"/>
</svg>
