<svg width="63" height="24" viewBox="0 0 63 24" fill="none" xmlns="http://www.w3.org/2000/svg">
<rect width="63" height="24" rx="12" fill="url(#paint0_linear_212_277)"/>
<path d="M14.898 8.228V14.276C14.898 14.9387 15.0707 15.4473 15.416 15.802C15.7613 16.1473 16.2467 16.32 16.872 16.32C17.5067 16.32 17.9967 16.1473 18.342 15.802C18.6873 15.4473 18.86 14.9387 18.86 14.276V8.228H20.834V14.262C20.834 15.0927 20.652 15.7973 20.288 16.376C19.9333 16.9453 19.4527 17.3747 18.846 17.664C18.2487 17.9533 17.5813 18.098 16.844 18.098C16.116 18.098 15.4533 17.9533 14.856 17.664C14.268 17.3747 13.8013 16.9453 13.456 16.376C13.1107 15.7973 12.938 15.0927 12.938 14.262V8.228H14.898ZM24.6877 8.228V18H22.7277V8.228H24.6877ZM31.8742 4.742L28.0942 20.534H26.1762L29.9562 4.742H31.8742ZM35.3648 8.228V14.276C35.3648 14.9387 35.5375 15.4473 35.8828 15.802C36.2281 16.1473 36.7135 16.32 37.3388 16.32C37.9735 16.32 38.4635 16.1473 38.8088 15.802C39.1541 15.4473 39.3268 14.9387 39.3268 14.276V8.228H41.3008V14.262C41.3008 15.0927 41.1188 15.7973 40.7548 16.376C40.4001 16.9453 39.9195 17.3747 39.3128 17.664C38.7155 17.9533 38.0481 18.098 37.3108 18.098C36.5828 18.098 35.9201 17.9533 35.3228 17.664C34.7348 17.3747 34.2681 16.9453 33.9228 16.376C33.5775 15.7973 33.4048 15.0927 33.4048 14.262V8.228H35.3648ZM49.0465 18L46.9325 14.71L45.0145 18H42.8025L45.8825 13.072L42.7605 8.228H45.0145L47.1285 11.504L49.0325 8.228H51.2445L48.1785 13.142L51.3005 18H49.0465Z" fill="white"/>
<defs>
<linearGradient id="paint0_linear_212_277" x1="0" y1="12" x2="63" y2="12" gradientUnits="userSpaceOnUse">
<stop stop-color="#C4A7F4"/>
<stop offset="0.354167" stop-color="#B7B5F4"/>
<stop offset="0.630208" stop-color="#A8C8F5"/>
<stop offset="1" stop-color="#95DEF7"/>
</linearGradient>
</defs>
</svg>
