<svg width="30" height="20" viewBox="0 0 30 20" fill="none" xmlns="http://www.w3.org/2000/svg">
<path d="M22.7562 13.9451C22.4482 13.7661 22.2588 13.4368 22.2588 13.0806V6.63772C22.2588 6.28153 22.4482 5.95224 22.7562 5.77321L27.2866 3.13924C27.9533 2.75165 28.7892 3.2326 28.7892 4.00375V15.7145C28.7892 16.4857 27.9533 16.9666 27.2866 16.579L22.7562 13.9451Z" stroke="#0075FF" stroke-width="2" stroke-miterlimit="10"/>
<path d="M1 3C1 1.89543 1.89543 1 3 1H19.2588C20.3634 1 21.2588 1.89543 21.2588 3V17C21.2588 18.1046 20.3634 19 19.2588 19H3C1.89543 19 1 18.1046 1 17V3Z" stroke="#0075FF" stroke-width="2" stroke-miterlimit="10"/>
</svg>
